<svg width="317" height="82" viewBox="0 0 317 82" fill="none" xmlns="http://www.w3.org/2000/svg">
<path d="M42.4492 0.155512C42.8918 0.157515 43.3296 0.247683 43.7367 0.420716C44.1435 0.59219 44.5124 0.84182 44.8224 1.15536C45.4467 1.79202 45.793 2.64895 45.7858 3.53915V15.4276C56.8783 17.3786 65.359 28.0233 65.359 40.8659C65.359 55.0925 54.9607 66.6243 42.1158 66.6243C29.2709 66.6243 18.8727 55.0925 18.8727 40.8659C18.8727 27.7886 27.6653 16.9884 39.0575 15.3301V7.0112C30.6165 7.765 22.7555 11.611 16.9941 17.8059C11.2326 24.0008 7.97974 32.1046 7.86425 40.551C7.74876 48.9974 10.7788 57.1866 16.3688 63.5356C21.9587 69.8847 29.7116 73.9428 38.1289 74.9256C46.5462 75.9084 55.0301 73.7461 61.9409 68.8567C68.8517 63.9672 73.6985 56.6977 75.5447 48.4534C77.3908 40.2091 76.105 31.5753 71.936 24.221C67.7669 16.8666 61.0105 11.3138 52.9728 8.63596C52.1264 8.35299 51.4275 7.74649 51.0297 6.94986C50.632 6.15324 50.568 5.23175 50.8519 4.38811C51.1358 3.54448 51.7443 2.8478 52.5435 2.45135C53.3427 2.05489 54.2672 1.99114 55.1136 2.2741C64.8858 5.55404 73.0584 12.3852 78.0012 21.4051C82.944 30.425 84.2938 40.9707 81.7814 50.9386C79.2689 60.9066 73.0789 69.5641 64.4459 75.1845C55.813 80.8049 45.3716 82.975 35.2045 81.262C25.0374 79.5489 15.8918 74.0786 9.59195 65.9422C3.29207 57.8058 0.300954 47.6013 1.2152 37.3641C2.12944 27.1268 6.88185 17.6094 14.5245 10.71C22.1672 3.81061 32.1383 0.0364401 42.4492 0.14027V0.155512ZM39.0483 22.14C31.8032 23.7587 25.5918 31.0076 25.5918 40.8507C25.5918 52.0594 33.6382 59.9027 42.1066 59.9027C50.5751 59.9027 58.6215 52.0594 58.6215 40.8507C58.6215 31.285 52.7587 24.1702 45.7766 22.2894V35.8209C45.7766 36.7103 45.4222 37.5631 44.7913 38.192C44.1604 38.8208 43.3047 39.1741 42.4125 39.1741C41.5202 39.1741 40.6646 38.8208 40.0337 38.192C39.4028 37.5631 39.0483 36.7103 39.0483 35.8209V22.14Z" fill="#EEEDED"/>
<path d="M101.23 57.6685C99.758 57.6685 98.6254 57.2722 97.8323 56.4796C97.0758 55.6871 96.6987 54.5582 96.7007 53.0929V32.0077C96.7007 30.5445 97.0779 29.4359 97.8323 28.6819C98.6274 27.8894 99.7203 27.4931 101.111 27.4931C102.538 27.4931 103.631 27.8894 104.389 28.6819C105.138 29.4338 105.512 30.5424 105.512 32.0077V35.3943L104.857 33.4343C105.701 31.5579 107.114 29.9927 108.897 28.9593C110.78 27.8754 112.923 27.3212 115.096 27.3559C117.443 27.3559 119.371 27.8111 120.88 28.7216C122.436 29.6486 123.631 31.0732 124.271 32.7636C125.03 34.5439 125.408 36.821 125.406 39.5949V53.0807C125.406 54.548 125.008 55.6769 124.213 56.4674C123.461 57.26 122.35 57.6563 120.88 57.6563C119.452 57.6563 118.339 57.26 117.54 56.4674C116.782 55.6749 116.404 54.546 116.408 53.0807V40.0217C116.408 38.0037 116.031 36.5588 115.277 35.687C114.561 34.7725 113.448 34.3163 111.937 34.3183C110.031 34.3183 108.502 34.9127 107.35 36.1016C106.237 37.2904 105.68 38.8745 105.68 40.8539V53.0929C105.69 56.1413 104.207 57.6664 101.23 57.6685ZM147.343 57.7874C143.877 57.7874 140.897 57.1777 138.404 55.9584C136.031 54.7728 134.046 52.9383 132.682 50.6695C131.369 48.3711 130.713 45.6774 130.715 42.5884C130.715 39.5767 131.351 36.9429 132.624 34.6871C133.845 32.4342 135.686 30.5752 137.93 29.3282C140.314 28.0019 143.007 27.3258 145.738 27.3681C147.697 27.3389 149.642 27.7028 151.457 28.4381C153.126 29.0852 154.629 30.0966 155.855 31.398C157.13 32.7333 158.088 34.3378 158.656 36.0924C159.316 38.065 159.639 40.1342 159.61 42.2135C159.629 42.5358 159.575 42.8583 159.451 43.1566C159.327 43.455 159.137 43.7214 158.894 43.9358C158.417 44.2894 157.723 44.4692 156.809 44.4692H138.098V39.8449H153.114L152.16 40.6771C152.207 39.2957 151.964 37.9198 151.444 36.6381C151.035 35.6059 150.305 34.7311 149.362 34.1415C148.372 33.5546 147.234 33.2656 146.083 33.3093C144.759 33.2697 143.453 33.6208 142.328 34.3183C141.262 35.0327 140.433 36.0457 139.945 37.2294C139.354 38.6802 139.07 40.2368 139.11 41.8019V42.2775C139.11 45.2872 139.806 47.5054 141.196 48.932C142.623 50.3545 144.729 51.0658 147.515 51.0658C148.615 51.0515 149.712 50.9341 150.79 50.7152C151.986 50.4907 153.148 50.1115 154.246 49.5874C155.163 49.1484 155.977 49.0112 156.693 49.1728C157.353 49.2583 157.953 49.6 158.362 50.1239C158.76 50.6355 158.989 51.2575 159.017 51.9041C159.092 52.6045 158.947 53.3109 158.601 53.9251C158.174 54.6215 157.552 55.1787 156.812 55.5285C155.376 56.3121 153.829 56.8733 152.224 57.1929C150.623 57.5796 148.982 57.779 147.334 57.7874H147.343ZM169.384 57.6075C167.912 57.6075 166.78 57.1919 165.987 56.3607C165.24 55.4889 164.867 54.2818 164.867 52.7393V32.4192C164.867 30.834 165.245 29.6259 165.999 28.7947C166.794 27.9229 167.927 27.487 169.397 27.487C170.824 27.487 171.917 27.9229 172.675 28.7947C173.47 29.6279 173.868 30.8361 173.868 32.4192V52.7363C173.868 54.2787 173.491 55.4869 172.736 56.3607C171.96 57.196 170.839 57.6136 169.375 57.6136L169.384 57.6075ZM169.384 22.6158C167.715 22.6158 166.423 22.2398 165.51 21.4879C164.635 20.6953 164.199 19.5857 164.201 18.1591C164.201 16.6959 164.637 15.5873 165.51 14.8334C166.425 14.0408 167.717 13.6445 169.384 13.6445C171.052 13.6445 172.324 14.0408 173.198 14.8334C174.073 15.5833 174.51 16.6918 174.51 18.1591C174.51 19.5817 174.073 20.6912 173.198 21.4879C172.317 22.2398 171.043 22.6158 169.375 22.6158H169.384ZM184.318 44.7161C183.364 44.7289 182.443 44.3664 181.755 43.7071C181.425 43.3808 181.165 42.9908 180.991 42.561C180.815 42.1329 180.729 41.6731 180.74 41.2106C180.727 40.7375 180.811 40.2668 180.985 39.8266C181.159 39.3881 181.421 38.9898 181.755 38.6561C182.095 38.3281 182.496 38.0701 182.936 37.897C183.376 37.7238 183.845 37.6389 184.318 37.6471H196.588C197.058 37.6445 197.524 37.7346 197.958 37.9123C198.392 38.092 198.787 38.3539 199.12 38.6835C199.453 39.0145 199.716 39.4083 199.894 39.8419C200.073 40.2761 200.165 40.7411 200.163 41.2106C200.171 41.6786 200.079 42.1429 199.894 42.5732C199.709 43.0034 199.435 43.3898 199.09 43.7071C198.764 44.0363 198.374 44.2956 197.944 44.4691C197.513 44.6426 197.052 44.7266 196.588 44.7161H184.318ZM211.571 57.6136C210.103 57.6136 208.97 57.198 208.173 56.3668C207.423 55.4971 207.048 54.2869 207.048 52.7363V32.4192C207.048 30.834 207.425 29.6259 208.179 28.7947C208.974 27.9229 210.107 27.487 211.577 27.487C213.004 27.487 214.097 27.9229 214.855 28.7947C215.647 29.6279 216.043 30.8361 216.045 32.4192V52.7363C216.045 54.2787 215.668 55.4869 214.914 56.3607C214.155 57.196 213.041 57.6136 211.571 57.6136ZM211.571 22.6219C209.901 22.6219 208.609 22.2459 207.696 21.494C206.821 20.7014 206.384 19.5918 206.384 18.1652C206.384 16.702 206.821 15.5934 207.696 14.8395C208.613 14.0469 209.905 13.6506 211.571 13.6506C213.237 13.6506 214.508 14.0469 215.385 14.8395C216.259 15.5894 216.697 16.6979 216.697 18.1652C216.697 19.5878 216.259 20.6973 215.385 21.494C214.51 22.2398 213.239 22.6127 211.571 22.6127V22.6219ZM234.202 57.7935C232.378 57.7853 230.558 57.6231 228.762 57.3088C227.023 57.0199 225.337 56.4797 223.755 55.7054C223.049 55.3831 222.45 54.8671 222.027 54.2178C221.719 53.6337 221.574 52.9777 221.608 52.3187C221.647 51.6989 221.859 51.1023 222.22 50.5964C222.587 50.1002 223.112 49.7433 223.709 49.5843C224.403 49.3893 225.145 49.4533 225.795 49.7642C227.238 50.3753 228.735 50.8519 230.266 51.1877C231.582 51.4608 232.922 51.6017 234.267 51.6084C235.979 51.6084 237.211 51.3503 237.961 50.8341C238.325 50.6088 238.626 50.2946 238.835 49.9212C239.043 49.5479 239.153 49.1277 239.154 48.7003C239.178 48.3629 239.121 48.0246 238.986 47.7141C238.851 47.4036 238.643 47.1302 238.38 46.917C237.704 46.4591 236.926 46.1734 236.114 46.0848L229.86 44.9569C227.395 44.518 225.487 43.6269 224.137 42.2836C222.824 40.8935 222.169 39.1306 222.171 36.9947C222.124 35.1519 222.713 33.3487 223.838 31.8857C225.021 30.3679 226.612 29.2149 228.425 28.56C230.571 27.7372 232.855 27.3336 235.153 27.3712C236.807 27.3575 238.457 27.5159 240.077 27.8436C241.592 28.1598 243.056 28.6797 244.429 29.3891C245.076 29.6794 245.602 30.1833 245.919 30.8158C246.231 31.3716 246.339 32.0182 246.225 32.6448C246.148 33.273 245.9 33.8685 245.509 34.3671C245.125 34.8712 244.579 35.2277 243.961 35.3761C243.259 35.523 242.527 35.4396 241.876 35.1383C240.753 34.5959 239.573 34.1778 238.359 33.8915C237.347 33.6212 236.305 33.4819 235.257 33.4769C233.474 33.4769 232.181 33.7818 231.386 34.3671C231.02 34.5913 230.719 34.9053 230.511 35.2789C230.303 35.6526 230.194 36.0734 230.196 36.5009C230.182 37.1379 230.416 37.7554 230.85 38.2232C231.464 38.7174 232.207 39.0263 232.991 39.1133L239.252 40.2381C241.839 40.6751 243.805 41.5469 245.151 42.8536C246.503 44.1217 247.179 45.8643 247.179 48.0815C247.179 51.0912 245.987 53.4679 243.604 55.2115C241.259 56.9247 238.121 57.7823 234.19 57.7843L234.202 57.7935ZM267.538 57.7935C264.072 57.7935 261.092 57.1838 258.598 55.9645C256.226 54.7789 254.241 52.9444 252.876 50.6756C251.563 48.3772 250.908 45.6835 250.91 42.5945C250.91 39.5827 251.546 36.949 252.818 34.6932C254.033 32.4381 255.869 30.5757 258.109 29.3251C260.492 27.9988 263.185 27.3227 265.914 27.3651C267.874 27.3355 269.82 27.6994 271.636 28.435C273.308 29.083 274.814 30.0953 276.043 31.398C277.317 32.7349 278.274 34.3389 278.844 36.0924C279.502 38.0656 279.823 40.1345 279.796 42.2135C279.815 42.5356 279.761 42.8579 279.638 43.1562C279.514 43.4545 279.325 43.7211 279.083 43.9358C278.606 44.2894 277.909 44.4692 276.994 44.4692H258.283V39.8449H273.3L272.346 40.6771C272.391 39.2958 272.148 37.9202 271.63 36.6381C271.221 35.6045 270.49 34.7293 269.544 34.1415C268.555 33.5543 267.416 33.2653 266.266 33.3093C264.942 33.2703 263.637 33.6213 262.513 34.3183C261.447 35.0317 260.618 36.045 260.131 37.2294C259.537 38.6793 259.253 40.2365 259.296 41.8019V42.2775C259.296 45.2872 259.991 47.5054 261.382 48.932C262.809 50.3545 264.914 51.0658 267.697 51.0658C268.796 51.0499 269.892 50.9326 270.969 50.7152C272.165 50.4902 273.327 50.111 274.425 49.5874C275.343 49.1514 276.156 49.0143 276.872 49.1728C277.532 49.2583 278.132 49.6 278.542 50.1239C278.937 50.6368 279.165 51.258 279.196 51.9041C279.27 52.6044 279.125 53.3103 278.78 53.9251C278.352 54.6208 277.731 55.1778 276.991 55.5285C275.556 56.3121 274.009 56.8733 272.404 57.1929C270.801 57.5801 269.159 57.7796 267.51 57.7874L267.538 57.7935ZM289.579 68.3681C288.111 68.3681 286.979 67.9718 286.181 67.1793C285.429 66.4233 285.052 65.2944 285.05 63.7926V32.0077C285.05 30.5445 285.427 29.4359 286.181 28.6819C286.977 27.8894 288.069 27.4931 289.46 27.4931C290.93 27.4931 292.042 27.8894 292.796 28.6819C293.535 29.4318 293.904 30.5404 293.904 32.0077V36.0497L293.249 33.733C293.848 31.8284 295.118 30.2042 296.824 29.1605C298.684 27.9575 300.861 27.3335 303.079 27.3681C305.436 27.312 307.757 27.9481 309.755 29.1971C311.747 30.4705 313.324 32.2945 314.293 34.4463C315.366 36.7041 315.903 39.3978 315.905 42.5274C315.907 45.657 315.37 48.3701 314.293 50.6665C313.343 52.8195 311.792 54.6552 309.825 55.9553C307.917 57.1746 305.674 57.7843 303.097 57.7843C300.935 57.821 298.808 57.2449 296.962 56.123C295.274 55.0962 293.99 53.523 293.326 51.6663H294.041V63.7865C294.041 65.2923 293.644 66.4212 292.848 67.1732C292.086 67.9657 290.99 68.362 289.561 68.362L289.579 68.3681ZM300.424 51.078C301.607 51.1033 302.771 50.7729 303.764 50.13C304.788 49.4538 305.579 48.4786 306.027 47.3377C306.583 46.0696 306.862 44.4652 306.862 42.5244C306.862 39.6285 306.266 37.5099 305.076 36.1686C304.509 35.4937 303.796 34.9559 302.99 34.5957C302.184 34.2356 301.307 34.0626 300.424 34.0897C299.231 34.0686 298.055 34.3766 297.026 34.9798C296.004 35.6586 295.214 36.633 294.763 37.772C294.206 38.9914 293.928 40.5755 293.928 42.5244C293.928 45.4142 294.524 47.5724 295.717 48.999C296.293 49.6737 297.014 50.2103 297.827 50.5686C298.64 50.927 299.523 51.098 300.412 51.0688L300.424 51.078Z" fill="#EEEDED"/>
</svg>