<svg width="446" height="582" viewBox="0 0 446 582" fill="none" xmlns="http://www.w3.org/2000/svg">
<mask id="mask0_656_24" style="mask-type:luminance" maskUnits="userSpaceOnUse" x="231" y="67" width="41" height="41">
<path d="M231.605 84.7659L231.649 67.5874L271.512 90.4075L271.462 107.592L231.605 84.7659Z" fill="white"/>
</mask>
<g mask="url(#mask0_656_24)">
<path d="M236.451 70.3463C234.992 69.5112 233.857 69.3442 233.058 69.87C232.26 70.3958 231.848 71.5155 231.842 73.2599L234.499 74.7817C234.499 73.6991 234.693 73.062 235.054 72.8578C235.307 72.7658 235.579 72.7403 235.845 72.7836C236.111 72.827 236.36 72.9378 236.57 73.1053C236.84 73.2584 237.095 73.4365 237.331 73.6373C237.574 73.8371 237.784 74.0728 237.955 74.3363C238.141 74.6083 238.28 74.9094 238.366 75.2271C238.47 75.5849 238.52 75.9559 238.516 76.3282C238.523 76.6242 238.479 76.9192 238.385 77.2004C238.3 77.4394 238.154 77.6524 237.961 77.819C237.725 78.0194 237.454 78.1765 237.163 78.2829C236.758 78.4407 236.341 78.5648 235.915 78.6541C235.146 78.8189 234.406 79.0962 233.72 79.4768C233.206 79.7705 232.765 80.1742 232.428 80.6584C232.116 81.1304 231.903 81.6609 231.805 82.2172C231.691 82.8751 231.637 83.5417 231.642 84.2091L241.242 89.7023V86.9681L235.167 83.4854C235.19 83.2739 235.258 83.0697 235.365 82.8855C235.473 82.7013 235.617 82.5412 235.79 82.4152C236.186 82.0853 236.654 81.8504 237.156 81.7285C237.806 81.5748 238.446 81.3806 239.071 81.1471C239.532 80.9811 239.956 80.7268 240.319 80.3986C240.635 80.1007 240.875 79.7315 241.017 79.3222C241.167 78.8182 241.241 78.2949 241.236 77.7695C241.241 76.9992 241.123 76.2329 240.886 75.4992C240.659 74.7844 240.333 74.1038 239.919 73.4764C239.49 72.8381 238.983 72.2544 238.41 71.7382C237.811 71.2042 237.154 70.7374 236.451 70.3463Z" fill="white"/>
<path d="M246.537 90.7726C246.187 90.5682 245.887 90.2893 245.658 89.956C245.376 89.5264 245.165 89.0543 245.034 88.558C244.841 87.8703 244.714 87.1661 244.654 86.4548C244.562 85.4884 244.522 84.5179 244.535 83.5473C244.524 82.6299 244.569 81.7126 244.672 80.8008C244.716 80.236 244.847 79.6811 245.059 79.1553C245.107 79.0044 245.187 78.8657 245.295 78.7491C245.403 78.6326 245.535 78.5411 245.683 78.481C245.99 78.4297 246.305 78.4984 246.562 78.6728C246.915 78.8825 247.215 79.1679 247.442 79.5079C247.725 79.9351 247.935 80.4053 248.066 80.8997C248.249 81.5827 248.372 82.2803 248.434 82.9844C248.515 83.8133 248.558 84.7783 248.558 85.8918C248.563 86.8009 248.517 87.7096 248.421 88.6137C248.365 89.178 248.237 89.733 248.041 90.2653C247.995 90.4185 247.915 90.5596 247.807 90.6784C247.699 90.7972 247.566 90.8907 247.417 90.952C247.265 90.9846 247.108 90.9855 246.955 90.9546C246.803 90.9237 246.658 90.8617 246.531 90.7726M246.494 76.087C245.878 75.6965 245.176 75.4608 244.448 75.4004C244.163 75.3874 243.879 75.4392 243.617 75.5518C243.356 75.6644 243.124 75.8347 242.939 76.0499C242.451 76.6636 242.127 77.389 241.997 78.1593C241.756 79.3712 241.645 80.605 241.666 81.84C241.653 83.2134 241.757 84.5855 241.978 85.9413C242.152 87.0489 242.462 88.1312 242.901 89.1642C243.274 90.044 243.781 90.8619 244.404 91.5891C244.982 92.2597 245.672 92.8267 246.444 93.2655C247.953 94.1316 249.151 94.113 250.03 93.1975C250.91 92.282 251.346 90.3272 251.353 87.3455C251.37 85.9856 251.26 84.627 251.022 83.2875C250.83 82.1985 250.51 81.1355 250.068 80.1203C249.681 79.2554 249.166 78.4527 248.54 77.7387C247.951 77.0831 247.26 76.5255 246.494 76.087Z" fill="white"/>
<path d="M256.498 81.8336C255.045 80.9985 253.91 80.8377 253.105 81.3635C252.301 81.8893 251.901 83.009 251.895 84.7472L254.552 86.269C254.552 85.1864 254.739 84.5493 255.107 84.3513C255.36 84.2585 255.632 84.2319 255.897 84.2741C256.163 84.3164 256.413 84.4261 256.623 84.5926C256.891 84.7509 257.146 84.9309 257.384 85.1307C257.625 85.3322 257.836 85.5677 258.008 85.8298C258.192 86.1031 258.331 86.4038 258.419 86.7206C258.523 87.0784 258.574 87.4493 258.569 87.8217C258.576 88.1157 258.532 88.4086 258.438 88.6877C258.353 88.9269 258.207 89.1401 258.014 89.3063C257.775 89.5067 257.503 89.6637 257.209 89.7702C256.804 89.9237 256.387 90.0457 255.962 90.1352C255.194 90.3057 254.454 90.5849 253.766 90.9641C253.253 91.2562 252.814 91.6602 252.482 92.1457C252.165 92.6133 251.952 93.1427 251.858 93.6983C251.745 94.3563 251.69 95.0228 251.696 95.6902L261.289 101.19V98.4492L255.207 94.9665C255.232 94.7544 255.3 94.5494 255.407 94.3643C255.514 94.1792 255.659 94.0178 255.831 93.8901C256.229 93.5626 256.696 93.3279 257.197 93.2035C257.847 93.0506 258.486 92.8585 259.112 92.6282C259.573 92.4622 259.997 92.2079 260.359 91.8797C260.678 91.582 260.916 91.2098 261.052 90.7971C261.208 90.2967 261.282 89.7744 261.27 89.2506C261.281 88.4804 261.165 87.7136 260.927 86.9804C260.7 86.2622 260.372 85.5792 259.954 84.9513C259.527 84.3148 259.022 83.733 258.451 83.2193C257.854 82.6841 257.202 82.2134 256.505 81.815" fill="white"/>
<path d="M270.981 90.6363L262.299 85.6875L261.968 95.3005L264.819 96.9275C264.891 96.7736 264.998 96.6381 265.131 96.531C265.264 96.4238 265.419 96.3479 265.586 96.3089C266.017 96.2852 266.444 96.4073 266.796 96.6553C267.431 97.0034 267.943 97.5368 268.262 98.1832C268.589 98.8843 268.751 99.6501 268.736 100.423C268.798 101.102 268.626 101.782 268.249 102.353C267.933 102.715 267.391 102.678 266.621 102.241C266.067 101.923 265.607 101.467 265.287 100.917C264.93 100.338 264.717 99.6828 264.663 99.0059L261.918 97.4409C261.954 98.1679 262.092 98.8864 262.33 99.5751C262.581 100.297 262.918 100.987 263.334 101.629C263.76 102.282 264.253 102.89 264.806 103.441C265.342 103.977 265.946 104.441 266.603 104.821C267.206 105.192 267.878 105.438 268.58 105.545C269.11 105.621 269.65 105.519 270.114 105.254C270.57 104.954 270.921 104.522 271.119 104.017C271.379 103.329 271.502 102.598 271.48 101.864C271.488 101.074 271.383 100.287 271.168 99.5256C270.971 98.8004 270.684 98.1023 270.314 97.4471C269.96 96.8212 269.526 96.2432 269.023 95.7274C268.547 95.2451 268.008 94.8289 267.42 94.4902C266.941 94.22 266.43 94.0121 265.898 93.8716C265.684 93.8061 265.458 93.7877 265.236 93.8176C265.014 93.8475 264.802 93.925 264.613 94.0448L264.75 89.8074L270.988 93.3705V90.6363" fill="white"/>
</g>
<mask id="mask1_656_24" style="mask-type:luminance" maskUnits="userSpaceOnUse" x="8" y="435" width="210" height="147">
<path d="M8.37061 461.251L8.43922 435.765L217.758 555.613L217.683 581.105L8.37061 461.251Z" fill="white"/>
</mask>
<g mask="url(#mask1_656_24)">
<path d="M11.8201 438.314L8.43943 436.378L8.3833 454.787L11.7702 456.723L11.8201 438.314Z" fill="white"/>
<path d="M19.8536 447.296C19.1516 446.817 18.3228 446.555 17.471 446.541C17.1665 446.563 16.872 446.659 16.6133 446.819C16.3545 446.98 16.1393 447.201 15.9865 447.463V445.477L12.9738 443.751L12.9302 457.361L16.0925 459.173V451.354C16.0925 449.263 16.9242 448.686 18.5875 449.622C19.2378 449.96 19.7832 450.466 20.1655 451.088C20.521 451.837 20.6798 452.662 20.6271 453.488V461.753L23.7894 463.565L23.8206 454.088C23.8239 453.368 23.7231 452.652 23.5212 451.96C23.328 451.291 23.0514 450.649 22.6979 450.049C22.3521 449.468 21.9329 448.934 21.4504 448.459C20.9797 447.996 20.4515 447.595 19.8786 447.265" fill="white"/>
<path d="M30.2516 453.278C29.5101 452.823 28.7081 452.473 27.8689 452.238C27.355 452.083 26.8093 452.062 26.2846 452.177C26.0935 452.227 25.9153 452.318 25.7616 452.441C25.608 452.565 25.4823 452.719 25.3927 452.894C25.1933 453.302 25.097 453.752 25.112 454.206C25.1057 454.771 25.1728 455.334 25.3116 455.882C25.4854 456.499 25.7547 457.085 26.11 457.62C26.5989 458.346 27.1565 459.023 27.7754 459.643C28.6681 460.542 29.6093 461.393 30.5946 462.192C31.1234 462.613 31.6082 463.085 32.0417 463.602C32.3516 463.989 32.5189 464.469 32.5157 464.963C32.5157 465.408 32.2974 465.582 31.892 465.582C31.3406 465.51 30.8122 465.318 30.3451 465.019C29.6616 464.639 29.0682 464.118 28.6049 463.491C28.1838 462.945 27.9519 462.279 27.9438 461.592L24.6816 459.736C24.7001 460.486 24.8412 461.227 25.0995 461.932C25.3827 462.696 25.7665 463.42 26.241 464.085C26.7578 464.81 27.3563 465.474 28.0249 466.064C28.7451 466.7 29.5288 467.262 30.3639 467.741C32.1186 468.743 33.4409 469.097 34.3308 468.805C35.2227 468.508 35.6718 467.753 35.6781 466.534C35.6941 465.836 35.6015 465.139 35.4036 464.468C35.1952 463.853 34.8854 463.276 34.4867 462.761C33.9688 462.113 33.3949 461.51 32.7715 460.961L30.1456 458.61C29.6229 458.162 29.1388 457.672 28.6985 457.144C28.4044 456.821 28.2286 456.409 28.1995 455.975C28.1995 455.548 28.3679 455.356 28.6985 455.356C29.2287 455.439 29.7337 455.637 30.1767 455.938C30.7731 456.256 31.2924 456.699 31.6987 457.237C32.0435 457.754 32.2575 458.346 32.3224 458.963L35.3662 460.707C35.2944 459.267 34.8451 457.87 34.0626 456.655C33.0972 455.249 31.8023 454.097 30.289 453.296" fill="white"/>
<path d="M39.6075 455.307L36.4888 453.507V465.712C36.4859 466.472 36.5717 467.229 36.7446 467.97C36.9276 468.751 37.2172 469.505 37.6053 470.209C38.0155 470.96 38.5229 471.655 39.1148 472.275C39.7711 472.953 40.5233 473.532 41.3477 473.995C42.0081 474.412 42.7499 474.686 43.5246 474.799C44.0513 474.867 44.585 474.744 45.0278 474.453C45.4464 474.142 45.7562 473.71 45.9135 473.215C46.1113 472.6 46.2062 471.956 46.1941 471.31V467.425L43.2751 465.755V469.306C43.3482 469.912 43.1854 470.522 42.8197 471.013C42.5204 471.31 42.0588 471.273 41.4288 470.914C40.8156 470.575 40.3298 470.047 40.0441 469.411C39.749 468.697 39.6067 467.93 39.6262 467.159V461.592L46.1941 465.353V462.798L39.6262 459.037V455.325" fill="white"/>
<path d="M50.5787 465.279L47.4163 463.466L47.3789 477.112L50.5412 478.919L50.5787 465.31M50.5787 460.317L47.46 458.474V461.833L50.5787 463.652V460.299" fill="white"/>
<path d="M55.0633 464.153L51.9447 462.359L51.9072 474.558C51.9064 475.318 51.9943 476.075 52.1692 476.815C52.349 477.597 52.6365 478.351 53.0237 479.055C53.8878 480.642 55.1847 481.956 56.7661 482.847C57.4236 483.264 58.1639 483.536 58.9367 483.645C59.4654 483.712 60.001 483.589 60.4462 483.298C60.8656 482.99 61.1739 482.556 61.3256 482.061C61.5235 481.446 61.6183 480.802 61.6063 480.156V476.271L58.6872 474.601V478.152C58.7539 478.759 58.5917 479.369 58.2319 479.865C57.9325 480.156 57.4647 480.119 56.841 479.766C56.2263 479.428 55.74 478.901 55.4563 478.263C55.1559 477.548 55.0113 476.779 55.0321 476.005V470.407L61.6125 474.168V471.619L55.0446 467.852V464.14" fill="white"/>
<path d="M73.57 478.449L70.4513 476.648V484.523C70.4861 484.859 70.4485 485.198 70.341 485.518C70.2335 485.838 70.0584 486.131 69.8276 486.379C69.4097 486.719 68.7984 486.664 67.9564 486.2C67.3017 485.833 66.7651 485.289 66.4086 484.632C66.0521 483.976 65.8902 483.232 65.9417 482.488V474.063L62.7794 472.25V481.238C62.776 481.989 62.8767 482.736 63.0788 483.459C63.2736 484.176 63.5542 484.868 63.9146 485.519C64.2522 486.158 64.6715 486.75 65.162 487.282C65.6428 487.791 66.1953 488.229 66.8025 488.581C68.4741 489.54 69.7216 489.491 70.5449 488.439V490.35L73.5388 492.064L73.5762 478.424" fill="white"/>
<path d="M77.9859 477.261L74.8672 475.467L74.836 487.666C74.8331 488.428 74.9189 489.187 75.0917 489.93C75.2764 490.71 75.5637 491.463 75.9463 492.169C76.3609 492.917 76.8703 493.609 77.4619 494.229C78.1176 494.909 78.8699 495.49 79.6949 495.955C80.3565 496.368 81.098 496.64 81.8717 496.753C82.4006 496.823 82.9369 496.7 83.3812 496.407C83.7976 496.097 84.1035 495.663 84.2544 495.169C84.4565 494.555 84.5535 493.911 84.5413 493.264V489.379L81.6222 487.703V491.254C81.6938 491.861 81.5312 492.473 81.1669 492.967C80.8738 493.258 80.4059 493.227 79.776 492.862C79.1602 492.526 78.6734 491.997 78.3913 491.359C78.0896 490.647 77.9471 489.879 77.9734 489.107V483.54L84.5475 487.301V484.752L77.9796 480.972V477.261" fill="white"/>
<path d="M91.5708 499.753C89.6414 498.652 88.6809 496.714 88.6892 493.938C88.6975 491.163 89.6664 490.338 91.5958 491.464C93.5294 492.569 94.4899 494.501 94.4774 497.26C94.465 500.019 93.4961 500.844 91.5708 499.734M91.5708 488.358C90.7895 487.873 89.9177 487.549 89.0073 487.406C88.3411 487.302 87.6592 487.426 87.0737 487.758C86.4929 488.132 86.054 488.687 85.8263 489.336C85.5167 490.203 85.3688 491.119 85.3896 492.039C85.3919 493.103 85.5281 494.163 85.7951 495.194C86.063 496.229 86.4656 497.225 86.9926 498.157C87.5217 499.095 88.1694 499.962 88.92 500.737C89.6841 501.527 90.5578 502.206 91.5147 502.753C92.2761 503.222 93.1244 503.536 94.0096 503.675C94.6746 503.783 95.3568 503.656 95.937 503.316C96.5051 502.939 96.9325 502.387 97.1533 501.745C97.4673 500.877 97.6154 499.958 97.5899 499.035C97.5955 497.95 97.455 496.868 97.172 495.819C96.8987 494.784 96.492 493.788 95.9619 492.856C95.4365 491.933 94.7974 491.079 94.0595 490.313C93.3241 489.549 92.4843 488.891 91.5646 488.358" fill="white"/>
<path d="M110.564 494.235C109.756 493.739 108.871 493.379 107.944 493.171C107.324 493.021 106.674 493.054 106.073 493.264C105.823 493.362 105.595 493.509 105.403 493.695C105.21 493.88 105.056 494.102 104.95 494.347C104.685 494.953 104.557 495.61 104.576 496.27C104.558 497.188 104.695 498.101 104.981 498.974C105.286 499.83 105.722 500.635 106.272 501.361C106.934 502.237 107.682 503.045 108.505 503.774C109.403 504.599 110.47 505.51 111.705 506.508C112.143 506.872 112.56 507.26 112.952 507.671C113.241 507.97 113.498 508.297 113.72 508.649C113.89 508.925 114.016 509.225 114.094 509.539C114.156 509.826 114.187 510.118 114.187 510.412C114.187 511.172 113.907 511.612 113.358 511.742C112.809 511.871 111.992 511.624 110.919 511.012C109.932 510.459 109.08 509.696 108.424 508.778C107.809 507.966 107.46 506.986 107.426 505.97L104.164 504.114C104.214 506.15 104.864 508.126 106.035 509.799C107.429 511.714 109.241 513.292 111.337 514.414C112.073 514.846 112.867 515.173 113.695 515.385C114.331 515.563 115.004 515.576 115.647 515.422C116.197 515.272 116.67 514.92 116.969 514.439C117.326 513.805 117.497 513.085 117.462 512.36C117.47 511.689 117.405 511.019 117.269 510.362C117.154 509.803 116.98 509.258 116.751 508.735C116.537 508.244 116.269 507.777 115.953 507.343C115.641 506.921 115.303 506.519 114.942 506.137C114.318 505.457 113.607 504.782 112.846 504.102C112.085 503.421 111.181 502.654 110.139 501.782C109.415 501.202 108.773 500.528 108.231 499.778C107.863 499.291 107.656 498.703 107.638 498.095C107.638 496.598 108.599 496.392 110.52 497.477C111.444 497.971 112.244 498.667 112.859 499.512C113.384 500.293 113.694 501.198 113.757 502.135L116.976 503.99C116.941 503.045 116.769 502.109 116.464 501.213C116.152 500.275 115.716 499.383 115.167 498.559C114.597 497.691 113.925 496.894 113.165 496.184C112.363 495.439 111.477 494.787 110.526 494.241" fill="white"/>
<path d="M129.082 510.232L125.963 508.438V516.307C125.998 516.642 125.96 516.981 125.853 517.301C125.745 517.621 125.57 517.915 125.339 518.163C124.922 518.503 124.31 518.447 123.468 517.989C122.815 517.621 122.279 517.078 121.922 516.421C121.566 515.765 121.404 515.022 121.454 514.278V505.846L118.291 504.034V513.022C118.285 513.772 118.384 514.52 118.584 515.243C118.784 515.961 119.064 516.654 119.42 517.309C119.76 517.944 120.179 518.534 120.668 519.066C121.148 519.577 121.701 520.017 122.308 520.371C123.98 521.324 125.221 521.28 126.051 520.229V522.14L129.044 523.848L129.082 510.238" fill="white"/>
<path d="M135.962 525.116C134.195 524.101 133.315 522.118 133.324 519.165C133.324 517.996 133.586 517.198 134.097 516.771C134.609 516.344 135.245 516.344 136.012 516.771C136.88 517.311 137.56 518.104 137.958 519.041C138.46 520.105 138.714 521.268 138.7 522.443C138.7 525.256 137.788 526.143 135.962 525.103M136.748 514.247C135.257 513.393 134.141 513.43 133.411 514.364V512.688L130.367 510.944L130.311 531.048L133.43 532.836V524.596C134.136 526.323 135.376 527.783 136.973 528.765C137.599 529.165 138.318 529.4 139.062 529.446C139.633 529.464 140.188 529.26 140.609 528.877C141.076 528.411 141.409 527.83 141.576 527.194C141.814 526.328 141.928 525.432 141.912 524.534C141.921 523.424 141.793 522.317 141.532 521.237C141.293 520.228 140.935 519.25 140.465 518.324C140.034 517.457 139.484 516.653 138.831 515.936C138.228 515.271 137.525 514.701 136.748 514.247Z" fill="white"/>
<path d="M145.929 525.382C145.998 524.472 146.266 523.891 146.728 523.631C146.989 523.502 147.282 523.448 147.572 523.474C147.863 523.5 148.141 523.606 148.374 523.779C148.703 523.971 149.005 524.204 149.273 524.472C149.574 524.772 149.836 525.109 150.052 525.474C150.282 525.864 150.464 526.28 150.595 526.712C150.734 527.184 150.81 527.673 150.819 528.165L145.929 525.363M148.48 520.959C147.731 520.493 146.896 520.18 146.023 520.037C145.391 519.931 144.742 520.061 144.202 520.402C143.665 520.78 143.267 521.32 143.066 521.942C142.778 522.791 142.643 523.683 142.667 524.578C142.667 529.526 144.657 533.147 148.636 535.44C149.913 536.17 151.017 536.422 151.948 536.195C152.88 535.968 153.533 535.259 153.907 534.067L150.645 532.211C150.611 532.394 150.516 532.56 150.376 532.683C150.236 532.806 150.058 532.88 149.871 532.892C149.385 532.911 148.904 532.777 148.499 532.508C147.699 532.032 147.05 531.342 146.628 530.516C146.149 529.614 145.883 528.615 145.848 527.596L154.094 532.316C154.174 529.934 153.693 527.566 152.691 525.4C151.776 523.538 150.315 521.994 148.499 520.971" fill="white"/>
<path d="M162.009 528.697L161.597 528.462C161.273 528.277 160.973 528.11 160.649 527.967C160.358 527.839 160.049 527.754 159.732 527.714C159.41 527.671 159.082 527.715 158.783 527.843C158.484 527.97 158.226 528.176 158.036 528.438V526.817L155.067 525.116L155.029 538.756L158.192 540.568V533.473C158.192 531.271 159.161 530.722 161.098 531.828C161.402 532.015 161.694 532.221 161.971 532.446V528.735" fill="white"/>
<path d="M165.97 531.357L162.807 529.545L162.77 543.191L165.932 544.998L165.97 531.388M165.97 526.396L162.807 524.584V527.937L165.97 529.749V526.396Z" fill="white"/>
<path d="M173.174 546.476C171.24 545.375 170.278 543.437 170.286 540.661C170.294 537.886 171.263 537.061 173.193 538.187C175.126 539.292 176.089 541.224 176.081 543.983C176.072 546.742 175.103 547.567 173.174 546.457M173.174 535.081C172.393 534.594 171.521 534.27 170.61 534.129C169.944 534.026 169.262 534.15 168.677 534.481C168.096 534.855 167.657 535.41 167.429 536.059C167.119 536.926 166.971 537.842 166.993 538.762C166.995 539.826 167.131 540.886 167.398 541.917C167.668 542.951 168.07 543.947 168.596 544.88C169.125 545.818 169.772 546.685 170.523 547.459C171.287 548.25 172.161 548.929 173.118 549.476C173.879 549.945 174.728 550.258 175.613 550.398C176.276 550.506 176.956 550.379 177.534 550.039C178.111 549.664 178.55 549.113 178.781 548.468C179.091 547.598 179.236 546.68 179.212 545.758C179.217 544.672 179.077 543.591 178.794 542.542C178.523 541.507 178.118 540.511 177.59 539.579C177.066 538.657 176.427 537.805 175.688 537.042C174.944 536.273 174.093 535.612 173.161 535.081" fill="white"/>
<path d="M187.251 543.148L186.834 542.913C186.509 542.721 186.21 542.56 185.885 542.418C185.594 542.289 185.285 542.204 184.969 542.164C184.674 542.132 184.375 542.165 184.095 542.263C183.769 542.391 183.484 542.605 183.272 542.882V541.261L180.303 539.56L180.266 553.169L183.428 554.982V547.886C183.428 545.684 184.397 545.136 186.335 546.241C186.641 546.427 186.935 546.634 187.214 546.859V543.148" fill="white"/>
<path d="M199.651 561.706C198.782 561.17 198.101 560.378 197.705 559.442C197.203 558.373 196.949 557.206 196.963 556.027C196.963 553.219 197.874 552.334 199.695 553.373C201.516 554.413 202.398 556.398 202.34 559.33C202.34 560.493 202.078 561.291 201.566 561.724C201.292 561.935 200.955 562.049 200.609 562.049C200.262 562.049 199.926 561.935 199.651 561.724M205.365 548.919L202.246 547.132V553.899C201.54 552.17 200.297 550.71 198.697 549.73C198.072 549.331 197.355 549.097 196.614 549.049C196.043 549.03 195.487 549.235 195.067 549.618C194.601 550.086 194.265 550.666 194.094 551.301C193.858 552.166 193.747 553.059 193.763 553.955C193.755 555.069 193.883 556.18 194.144 557.264C194.385 558.273 194.743 559.251 195.21 560.178C195.642 561.038 196.187 561.837 196.832 562.553C197.435 563.226 198.142 563.798 198.928 564.248C200.412 565.102 201.535 565.065 202.265 564.137V565.807L205.309 567.552L205.359 548.919" fill="white"/>
<path d="M209.569 561.817C209.637 560.914 209.906 560.332 210.367 560.066C210.629 559.94 210.921 559.888 211.211 559.914C211.501 559.94 211.779 560.044 212.014 560.215C212.342 560.409 212.644 560.644 212.912 560.914C213.215 561.213 213.477 561.55 213.692 561.916C213.922 562.305 214.104 562.721 214.234 563.153C214.373 563.624 214.45 564.111 214.465 564.601L209.569 561.799M212.12 557.394C211.37 556.93 210.535 556.619 209.662 556.479C209.031 556.371 208.383 556.499 207.841 556.837C207.304 557.215 206.905 557.755 206.706 558.378C206.419 559.226 206.284 560.118 206.307 561.013C206.307 565.962 208.296 569.583 212.276 571.876C213.523 572.612 214.658 572.859 215.588 572.63C216.517 572.401 217.166 571.696 217.54 570.502L214.278 568.646C214.246 568.83 214.153 568.997 214.014 569.121C213.875 569.246 213.698 569.321 213.511 569.333C213.022 569.347 212.54 569.211 212.132 568.943C211.331 568.468 210.683 567.777 210.261 566.951C209.781 566.05 209.515 565.051 209.482 564.032L217.733 568.758C217.808 566.374 217.326 564.004 216.324 561.836C215.407 559.975 213.947 558.431 212.132 557.407" fill="white"/>
</g>
<mask id="mask2_656_24" style="mask-type:luminance" maskUnits="userSpaceOnUse" x="8" y="0" width="214" height="334">
<path d="M8.6264 333.888L8.01514 122.315L220.79 0.487793L221.395 212.055L8.6264 333.888Z" fill="white"/>
</mask>
<g mask="url(#mask2_656_24)">
<path d="M70.8065 86.3679L8.01514 122.315L8.30829 222.769L26.7584 212.203L26.6398 169.842L65.3987 147.646L65.3488 129.948L26.5899 152.144L26.5213 129.299L70.8564 103.911L70.8065 86.3679Z" fill="white"/>
<path d="M110.233 63.7891L88.8573 76.0311L57.6831 194.493L77.1997 183.321L83.3809 159.022L115.902 140.396L121.541 157.934L141.582 146.459L110.233 63.7891Z" fill="white"/>
<path d="M163.861 33.0818L145.411 43.6475L145.698 144.102L207.822 108.526L207.766 90.2218L164.092 115.226L163.861 33.0818Z" fill="white"/>
<path d="M220.79 0.487793L211.914 5.56649L212.201 106.021L221.077 100.936L220.79 0.487793Z" fill="white"/>
<path d="M105.224 171.147C83.7179 183.463 73.0333 202.473 73.0333 220.48C73.0707 233.186 78.4037 237.405 87.8408 236.848C94.0781 236.452 101.126 234.238 112.017 230.737C123.044 227.143 125.739 229.71 125.739 235.611C125.739 244.538 119.539 253.402 108.655 259.638C96.8412 266.399 89.2566 264.382 88.9572 254.243L71.1621 264.463C71.6237 286.776 86.7555 289.151 108.555 276.686C129.138 264.902 143.709 246.715 143.646 224.625C143.603 210.397 137.478 207.7 129.768 208.17C123.256 208.572 113.551 211.399 103.571 214.356C93.7413 217.257 89.8804 215.828 89.8492 209.475C89.8492 201.91 95.2632 194.561 105.617 188.629C116.763 182.245 122.221 184.125 123.182 193.874L140.702 183.841C139.985 165.01 127.467 158.391 105.149 171.159" fill="white"/>
<path d="M213.018 112.757L141.338 153.801L141.388 171.351L167.934 156.146L168.171 239.051L186.621 228.485L186.384 145.586L213.068 130.307L213.018 112.757Z" fill="white"/>
<path d="M221.12 114.972L192.066 225.367L211.583 214.195L217.758 189.897L221.326 187.855L221.12 114.972Z" fill="white"/>
</g>
<mask id="mask3_656_24" style="mask-type:luminance" maskUnits="userSpaceOnUse" x="219" y="0" width="211" height="331">
<path d="M219.317 210.298L219.916 0.302246L429.304 120.205L428.705 330.195L219.317 210.298Z" fill="white"/>
</mask>
<g mask="url(#mask3_656_24)">
<path d="M229.49 5.78928L219.916 0.426025L220.608 101.431L273.857 131.241L273.732 112.832L230.058 88.3847L229.49 5.78928Z" fill="#D1D3D4"/>
<path d="M244.173 121.276L222.804 109.312L220.714 114.991L221.22 188.276L250.173 204.49L255.893 228.454L275.934 239.676L244.173 121.276Z" fill="#D1D3D4"/>
<path d="M310.557 155.107L309.99 154.785C284.772 140.669 269.123 152.663 269.36 186.897C269.59 221.291 287.086 249.103 309.902 262.174L310.47 262.489C330.91 273.94 344.607 266.455 348.168 245.565L329.718 235.234C327.28 246.449 320.693 249.882 309.809 243.789L309.516 243.622C295.369 235.525 288.209 218.359 288.059 196.151C287.903 174.092 294.983 164.571 310.245 173.114L310.464 173.238C319.14 178.187 326.905 189.359 329.488 202.071L347.938 212.401C346.066 191.239 332.257 167.541 310.551 155.107" fill="#D1D3D4"/>
<path d="M427.227 223.753L403.332 210.379L369.899 232.574L369.619 191.505L351.431 181.323L352.129 282.328L370.311 292.51L370.074 258.128L379.823 252.524L406.288 312.645L428.718 325.209L392.722 244.142L427.227 223.753Z" fill="#D1D3D4"/>
</g>
<mask id="mask4_656_24" style="mask-type:luminance" maskUnits="userSpaceOnUse" x="233" y="437" width="205" height="143">
<path d="M233.595 579.565L233.526 554.468L437.313 437.782L437.388 462.878L233.595 579.565Z" fill="white"/>
</mask>
<g mask="url(#mask4_656_24)">
<path d="M245.402 547.917L233.526 554.716L233.583 573.1L245.839 566.079L245.833 562.807L236.857 567.947L236.845 563.209L244.754 558.681L244.741 555.433L236.832 559.961L236.82 556.027L245.415 551.109L245.402 547.917Z" fill="white"/>
<path d="M253.293 547.781C252.384 548.282 251.578 548.947 250.916 549.742C250.283 550.53 249.786 551.416 249.444 552.365V550.379L246.425 552.105L246.463 565.751L249.631 563.939V556.12C249.631 554.029 250.436 552.52 252.076 551.579C252.825 551.152 253.355 551.029 253.661 551.227C253.966 551.425 254.128 552.043 254.128 553.082V561.347L257.297 559.534L257.266 550.058C257.287 549.449 257.183 548.843 256.96 548.276C256.797 547.875 256.506 547.538 256.131 547.317C255.746 547.122 255.305 547.066 254.883 547.156C254.325 547.269 253.791 547.479 253.305 547.775" fill="white"/>
<path d="M264.333 552.73C263.553 553.175 262.904 553.188 262.393 552.73C261.882 552.272 261.626 551.493 261.62 550.255C261.62 547.488 262.516 545.591 264.308 544.564C266.11 543.531 267.015 544.478 267.021 547.385C267.038 548.493 266.779 549.587 266.266 550.571C265.838 551.444 265.167 552.178 264.333 552.687M263.541 541.861C262.775 542.311 262.087 542.879 261.501 543.544C260.857 544.271 260.304 545.072 259.854 545.931C259.373 546.85 258.999 547.819 258.738 548.82C258.464 549.846 258.328 550.902 258.332 551.963C258.325 552.796 258.421 553.627 258.619 554.437C258.758 555.084 259.073 555.682 259.53 556.163C259.746 556.369 260.001 556.529 260.281 556.635C260.561 556.742 260.859 556.791 261.158 556.782C262.049 556.725 262.909 556.437 263.653 555.947C264.429 555.503 265.123 554.932 265.705 554.258C266.27 553.636 266.695 552.902 266.952 552.105V554.351C266.937 555.3 266.633 556.223 266.079 556.998C265.529 557.828 264.792 558.52 263.927 559.021C263.656 559.223 263.344 559.366 263.013 559.438C262.681 559.511 262.338 559.512 262.006 559.442C261.526 559.262 261.283 558.761 261.283 557.926L258.357 559.596C258.332 560.334 258.483 561.068 258.8 561.737C259.06 562.237 259.491 562.63 260.017 562.844C260.617 563.058 261.268 563.093 261.888 562.943C262.705 562.763 263.486 562.452 264.202 562.021C265.047 561.532 265.83 560.945 266.535 560.271C267.248 559.582 267.877 558.812 268.406 557.976C268.94 557.135 269.359 556.228 269.653 555.278C269.959 554.31 270.113 553.3 270.109 552.284L270.065 538.502L266.903 540.315V542.003C266.154 541.063 265.031 541.02 263.534 541.873" fill="white"/>
<path d="M274.337 541.595C274.391 540.661 274.66 539.751 275.123 538.935C275.506 538.222 276.075 537.624 276.77 537.203C277.046 537.036 277.35 536.921 277.668 536.863C277.934 536.815 278.208 536.856 278.448 536.98C278.694 537.121 278.887 537.338 278.996 537.599C279.151 537.976 279.231 538.379 279.233 538.787L274.337 541.589M276.832 534.283C275.927 534.797 275.1 535.434 274.375 536.176C273.663 536.904 273.055 537.724 272.566 538.614C272.072 539.512 271.693 540.468 271.437 541.459C271.179 542.47 271.053 543.509 271.063 544.552C271.063 549.501 273.065 550.835 277.069 548.554C278.38 547.794 279.508 546.76 280.375 545.523C281.301 544.221 281.958 542.749 282.308 541.193L279.046 543.049C278.925 543.624 278.664 544.162 278.285 544.614C277.909 545.093 277.443 545.496 276.913 545.802C276.136 546.247 275.512 546.303 275.042 545.969C274.562 545.628 274.294 544.96 274.244 543.952L282.496 539.226C282.496 536.508 282.015 534.745 281.055 533.937C280.1 533.133 278.703 533.256 276.851 534.32" fill="white"/>
<path d="M290.33 526.551C289.42 527.056 288.612 527.722 287.947 528.518C287.316 529.307 286.819 530.193 286.475 531.141V529.155L283.456 530.881L283.493 544.49L286.662 542.678V534.859C286.662 532.774 287.473 531.258 289.113 530.324C289.856 529.897 290.361 529.774 290.698 529.972C291.034 530.17 291.159 530.788 291.165 531.827V540.092L294.328 538.279V528.802C294.348 528.194 294.242 527.587 294.016 527.021C293.855 526.618 293.563 526.281 293.186 526.062C292.802 525.867 292.361 525.811 291.939 525.901C291.382 526.014 290.85 526.223 290.367 526.52" fill="white"/>
<path d="M298.719 517.136L295.557 518.948L295.607 537.587L298.775 535.774V527.955C298.775 527.489 298.827 527.024 298.931 526.569C299.037 526.111 299.196 525.667 299.405 525.245C299.61 524.826 299.87 524.434 300.178 524.083C300.475 523.736 300.829 523.443 301.226 523.217C301.956 522.802 302.474 522.691 302.798 522.889C303.123 523.087 303.272 523.699 303.272 524.744V533.201L306.441 531.388V521.738C306.441 520.371 306.042 519.523 305.274 519.196C304.507 518.868 303.503 519.059 302.274 519.759C301.859 520.001 301.468 520.282 301.108 520.6C300.741 520.915 300.399 521.259 300.085 521.627C299.782 521.982 299.511 522.363 299.274 522.765C299.062 523.13 298.888 523.515 298.756 523.916V517.111" fill="white"/>
<path d="M312.104 525.914C311.082 526.499 310.57 526.293 310.57 525.295C310.563 524.706 310.74 524.129 311.075 523.643C311.606 522.939 312.236 522.314 312.947 521.788C313.533 521.317 313.982 520.946 314.288 520.656C314.564 520.41 314.802 520.124 314.992 519.808V521.324C314.987 521.76 314.911 522.192 314.768 522.604C314.606 523.056 314.397 523.489 314.144 523.897C313.89 524.314 313.589 524.7 313.246 525.048C312.914 525.393 312.534 525.689 312.117 525.926M313.021 513.603C312.151 514.093 311.337 514.676 310.595 515.342C309.975 515.907 309.432 516.549 308.98 517.253C308.583 517.886 308.282 518.574 308.088 519.295C307.902 519.983 307.802 520.691 307.788 521.404L310.732 519.721C310.807 519.086 311.008 518.472 311.325 517.915C311.706 517.298 312.246 516.794 312.89 516.455C313.324 516.155 313.84 515.994 314.369 515.991C314.737 516.028 314.911 516.27 314.917 516.715C314.925 517.173 314.78 517.621 314.506 517.989C314.041 518.539 313.502 519.022 312.903 519.425C312.113 520.01 311.379 520.575 310.701 521.119C310.059 521.632 309.475 522.213 308.961 522.852C308.474 523.46 308.09 524.143 307.826 524.874C307.536 525.706 307.397 526.581 307.414 527.46C307.414 528.565 307.738 529.283 308.387 529.613C309.011 529.935 310.04 529.706 311.418 528.914C312.208 528.466 312.929 527.908 313.558 527.256C314.143 526.661 314.642 525.988 315.042 525.258C315.06 525.633 315.125 526.005 315.236 526.365L318.155 524.695V516.072C318.173 515.351 318.083 514.632 317.886 513.938C317.762 513.443 317.452 513.013 317.019 512.737C316.529 512.5 315.966 512.452 315.441 512.601C314.595 512.808 313.786 513.146 313.046 513.603" fill="white"/>
<path d="M326.332 505.939L325.92 506.174C325.59 506.36 325.297 506.558 324.966 506.793C324.637 507.026 324.332 507.292 324.055 507.584C323.732 507.925 323.44 508.293 323.182 508.686C322.863 509.177 322.591 509.696 322.371 510.238V508.617L319.402 510.319L319.44 523.928L322.602 522.122V515.02C322.565 514.009 322.816 513.008 323.327 512.133C323.838 511.257 324.587 510.543 325.49 510.071C325.773 509.912 326.066 509.773 326.369 509.657V505.945" fill="white"/>
<path d="M330.299 504.058L327.137 505.871L327.174 519.48L330.336 517.668L330.299 504.058ZM330.299 499.066L327.13 500.879V504.232L330.293 502.419V499.066" fill="white"/>
<path d="M336.05 512.205C335.027 512.791 334.515 512.585 334.515 511.587C334.509 511 334.685 510.425 335.021 509.941C335.55 509.236 336.18 508.61 336.892 508.085C337.472 507.622 337.921 507.244 338.233 506.953C338.504 506.707 338.74 506.424 338.931 506.112V507.622C338.926 508.058 338.85 508.49 338.707 508.902C338.393 509.827 337.878 510.672 337.198 511.376C336.864 511.72 336.484 512.015 336.069 512.255M336.973 499.932C336.102 500.418 335.29 501.002 334.553 501.671C333.931 502.231 333.388 502.872 332.937 503.576C332.537 504.21 332.234 504.901 332.039 505.623C331.856 506.312 331.755 507.021 331.74 507.733L334.684 506.05C334.759 505.413 334.96 504.797 335.276 504.238C335.66 503.625 336.2 503.123 336.842 502.784C337.277 502.486 337.791 502.322 338.32 502.314C338.688 502.357 338.869 502.599 338.869 503.038C338.879 503.498 338.734 503.949 338.457 504.318C337.99 504.865 337.451 505.348 336.854 505.753C336.06 506.335 335.326 506.898 334.653 507.442C334.012 507.956 333.428 508.537 332.912 509.174C332.427 509.783 332.043 510.467 331.777 511.197C331.488 512.028 331.349 512.904 331.366 513.783C331.366 514.888 331.69 515.606 332.339 515.936C332.962 516.263 333.992 516.028 335.37 515.243C336.159 514.793 336.879 514.235 337.509 513.585C338.094 512.987 338.594 512.313 338.994 511.581C339.01 511.957 339.077 512.329 339.193 512.688L342.106 511.018V502.394C342.12 501.674 342.027 500.955 341.832 500.26C341.709 499.765 341.399 499.335 340.965 499.06C340.473 498.825 339.912 498.777 339.387 498.924C338.541 499.137 337.734 499.477 336.992 499.932" fill="white"/>
<path d="M355.055 500.966C354.262 501.417 353.608 501.405 353.102 500.928C352.597 500.452 352.348 499.598 352.341 498.38C352.341 495.565 353.24 493.648 355.055 492.602C356.87 491.557 357.712 492.565 357.724 495.516C357.731 496.65 357.47 497.771 356.963 498.788C356.557 499.684 355.893 500.442 355.055 500.966ZM360.668 481.659L357.55 483.447V490.208C356.658 489.299 355.472 489.262 353.994 490.109C353.211 490.56 352.507 491.134 351.911 491.81C351.298 492.523 350.78 493.311 350.37 494.155C349.947 495.044 349.627 495.978 349.416 496.938C349.199 497.934 349.093 498.951 349.098 499.97C349.074 500.937 349.209 501.903 349.497 502.828C349.689 503.477 350.061 504.06 350.57 504.51C351.031 504.883 351.618 505.067 352.21 505.024C352.953 504.959 353.669 504.719 354.3 504.325C355.83 503.429 357.006 502.04 357.631 500.39V502.036L360.674 500.297L360.625 481.659" fill="white"/>
<path d="M367.879 493.536C365.954 494.645 364.985 493.821 364.972 491.062C364.972 488.303 365.926 486.379 367.854 485.272C369.781 484.164 370.754 484.987 370.767 487.746C370.779 490.505 369.812 492.46 367.879 493.561M367.835 482.197C366.891 482.737 366.028 483.405 365.272 484.183C364.525 484.954 363.877 485.814 363.344 486.744C362.803 487.681 362.384 488.683 362.097 489.726C361.818 490.765 361.678 491.836 361.679 492.911C361.66 493.823 361.802 494.732 362.097 495.596C362.312 496.244 362.738 496.803 363.307 497.186C363.891 497.526 364.577 497.655 365.247 497.551C366.171 497.411 367.056 497.085 367.848 496.592C368.768 496.06 369.607 495.402 370.343 494.637C371.09 493.872 371.733 493.013 372.257 492.082C372.783 491.148 373.19 490.153 373.467 489.119C373.749 488.076 373.887 487.001 373.879 485.921C373.906 484.991 373.76 484.064 373.449 483.187C373.223 482.54 372.784 481.989 372.201 481.622C371.622 481.29 370.947 481.166 370.286 481.269C369.389 481.405 368.53 481.721 367.76 482.197" fill="white"/>
<path d="M384.277 476.976V471.564L387.489 469.708C388.462 469.151 389.167 468.996 389.597 469.25C389.829 469.43 390.009 469.668 390.119 469.94C390.228 470.211 390.264 470.507 390.221 470.796C390.224 471.621 390.009 472.431 389.597 473.147C389.088 473.978 388.361 474.658 387.495 475.114L384.283 476.97M388.025 466.225L380.89 470.314L380.94 488.723L384.326 486.787V480.106L388.069 477.96C388.858 477.51 389.578 476.952 390.208 476.302C390.835 475.66 391.382 474.946 391.836 474.174C392.284 473.412 392.634 472.597 392.878 471.749C393.113 470.926 393.234 470.075 393.24 469.219C393.253 468.495 393.126 467.774 392.865 467.097C392.658 466.568 392.29 466.116 391.811 465.804C391.322 465.508 390.746 465.384 390.177 465.452C389.417 465.559 388.689 465.823 388.038 466.225" fill="white"/>
<path d="M399.758 475.288C397.829 476.389 396.86 475.564 396.851 472.813C396.851 470.054 397.806 468.13 399.733 467.023C401.66 465.916 402.64 466.738 402.646 469.497C402.652 472.256 401.692 474.217 399.758 475.325M399.714 463.955C398.771 464.493 397.91 465.161 397.157 465.94C396.406 466.708 395.758 467.569 395.23 468.501C394.687 469.439 394.268 470.441 393.982 471.483C393.704 472.523 393.564 473.594 393.564 474.669C393.544 475.582 393.688 476.491 393.988 477.354C394.201 478.003 394.627 478.563 395.199 478.943C395.781 479.284 396.464 479.413 397.132 479.308C398.056 479.169 398.941 478.842 399.733 478.35C400.653 477.817 401.493 477.159 402.228 476.395C402.971 475.627 403.613 474.769 404.137 473.84C404.662 472.906 405.069 471.911 405.347 470.877C405.63 469.834 405.77 468.759 405.765 467.679C405.79 466.748 405.642 465.822 405.328 464.945C405.101 464.299 404.661 463.748 404.08 463.379C403.504 463.048 402.83 462.924 402.172 463.027C401.273 463.161 400.411 463.477 399.639 463.955" fill="white"/>
<path d="M413.773 455.87L413.355 456.105C413.031 456.29 412.731 456.494 412.407 456.723C412.078 456.957 411.773 457.222 411.496 457.515C411.173 457.856 410.88 458.224 410.623 458.616C410.303 459.108 410.029 459.627 409.806 460.169V458.554L406.843 460.249L406.881 473.859L410.043 472.052V464.951C410.002 463.939 410.252 462.937 410.764 462.061C411.275 461.185 412.026 460.471 412.931 460.002C413.212 459.838 413.506 459.697 413.81 459.581V455.87" fill="white"/>
<path d="M417.627 450.358L414.509 452.152L414.546 464.357C414.533 465.019 414.626 465.678 414.821 466.312C414.959 466.809 415.262 467.245 415.681 467.549C416.133 467.834 416.673 467.95 417.203 467.877C417.998 467.754 418.758 467.47 419.436 467.042C420.241 466.587 420.975 466.018 421.613 465.353C422.202 464.729 422.708 464.033 423.116 463.28C423.5 462.571 423.791 461.817 423.983 461.035C424.162 460.308 424.252 459.562 424.252 458.814V454.929L421.332 456.6V460.15C421.355 460.916 421.204 461.677 420.89 462.377C420.596 463.006 420.109 463.526 419.499 463.862C418.875 464.233 418.395 464.264 418.108 463.955C417.766 463.431 417.616 462.806 417.684 462.186V456.581L424.195 452.832V450.284L417.627 454.045V450.333" fill="white"/>
<path d="M431.3 457.224C429.366 458.33 428.398 457.494 428.393 454.719C428.389 451.944 429.35 450.016 431.275 448.935C433.209 447.826 434.18 448.651 434.188 451.41C434.196 454.168 433.234 456.109 431.3 457.231M431.256 445.867C430.311 446.403 429.448 447.069 428.693 447.846C427.944 448.619 427.297 449.481 426.765 450.414C426.223 451.348 425.804 452.348 425.518 453.389C425.237 454.43 425.096 455.503 425.1 456.581C425.077 457.492 425.221 458.4 425.524 459.26C425.735 459.908 426.159 460.468 426.728 460.849C427.311 461.195 427.998 461.325 428.668 461.214C429.59 461.078 430.473 460.754 431.263 460.262C432.181 459.727 433.021 459.069 433.757 458.307C434.506 457.54 435.15 456.679 435.672 455.746C436.198 454.814 436.605 453.821 436.882 452.789C437.162 451.744 437.303 450.666 437.3 449.585C437.323 448.657 437.175 447.732 436.864 446.857C436.638 446.209 436.198 445.655 435.616 445.285C435.039 444.957 434.366 444.832 433.708 444.933C432.821 445.076 431.973 445.393 431.213 445.867" fill="white"/>
</g>
<mask id="mask5_656_24" style="mask-type:luminance" maskUnits="userSpaceOnUse" x="0" y="227" width="446" height="257">
<path d="M0 355.384L222.006 227.433L445.459 355.384L223.453 483.329L0 355.384Z" fill="white"/>
</mask>
<g mask="url(#mask5_656_24)">
<path d="M4.42227 355.397L222.012 229.963L441.036 355.397L223.434 480.799L4.42227 355.397ZM445.471 355.397L222.006 227.433L0 355.397L223.453 483.329L445.459 355.397" fill="white"/>
</g>
<mask id="mask6_656_24" style="mask-type:luminance" maskUnits="userSpaceOnUse" x="0" y="260" width="446" height="257">
<path d="M0 388.702L222.006 260.751L445.459 388.696L223.453 516.653L0 388.702Z" fill="white"/>
</mask>
<g mask="url(#mask6_656_24)">
<path d="M4.42227 388.702L222.018 263.281L441.036 388.696L223.44 514.117L4.42227 388.702ZM445.471 388.702L222.006 260.751L0 388.702L223.453 516.653L445.459 388.696" fill="white"/>
</g>
<mask id="mask7_656_24" style="mask-type:luminance" maskUnits="userSpaceOnUse" x="0" y="292" width="446" height="257">
<path d="M0 420.078L222.006 292.126L445.459 420.071L223.453 548.022L0 420.078Z" fill="white"/>
</mask>
<g mask="url(#mask7_656_24)">
<path d="M4.42227 420.071L222.018 294.657L441.036 420.071L223.44 545.486L4.42227 420.071ZM445.471 420.071L222.006 292.126L0 420.078L223.453 548.022L445.459 420.078" fill="white"/>
</g>
</svg>
